# xmcd
#
# Track frame offsets:
#	150
#	14952
#	24868
#	33179
#	44447
#	58452
#	70010
#	81189
#	96065
#	105940
#	120523
#	129120
#	153493
#	168822
#	184169
#	196255
#	198400
#	214634
#	225340
#
# Disc length: 3244 seconds
#
# Revision: 0
# Processed by: cddbd v1.5.2PL0 Copyright (c) Steve Scherf et al.
# Submitted via: EasyCDDAExtractor 16.0.6.1
#
DISCID=ef0caa13
DTITLE=Συλλογικός δίσκος - Τα μελοποιημένα 16
DYEAR=2010
DGENRE=Έντεχνη
TTITLE0=Μητσιάς Μανώλης - Λούζεται η αγάπη μου [Χρ. Λεοντής-F.G.Lorca, απ. Λ. 
TTITLE0=Παπαδόπουλος]
TTITLE1=Μοσχολιού Βίκυ - Ξημερώματα [Γ. Ζαμπέτας-Δ. Χριστοδούλου]
TTITLE2=Δημητριάδη Μαρία - Η πιο όμορφη θάλασσα [Θ.Μικρούτσικος-Ν.Χικμέτ, απ. 
TTITLE2=Γ.Παπαλεονάρδος]
TTITLE3=Ζορμπαλά Μαργαρίτα - Τώρα [Μ. Θεοδωράκης-Κ. Τριπολίτης]
TTITLE4=Πουλόπουλος Γιάννης - Κάθε Μάρτη, κάθε Απρίλη [Γ. Γλέζος-Διον. Τζεφρών
TTITLE4=ης]
TTITLE5=Βιολάρης Μιχάλης - Ήρθες εψές [Γ. Σπανός-Σωτ. Σκίπης]
TTITLE6=Θεοδωράκης Μίκης - Είμαι Άγγλος, νιός και τυχερός [Μ.Θεοδωράκης-B.F.Be
TTITLE6=han, απ. Β.Ρώτας]
TTITLE7=Φαραντούρη Μαρία - Ο ύπνος σε τύληξε [Μ. Θεοδωράκης-Γ. Σεφέρης]
TTITLE8=Ψαριανός Δημήτρης - Πεινάω για σένα [Χρ. Γκάρτζος-P. Neruda, απ. Λ. Πα
TTITLE8=παδόπουλος]
TTITLE9=Υπόγεια Ρεύματα - Ωραίο μάθημα [Ν. Πλάτανος-Fr. Villon, απ. Γ. Κοροπού
TTITLE9=λης]
TTITLE10=Χωματά Καίτη - Ένα πουλί [Γ. Σπανός-Τέλλος Άγρας]
TTITLE11=Ξυδάκης Νίκος - Ο φιλομαθής πτωχός [Ν. Ξυδάκης-Γ. Βιζυηνός]
TTITLE12=Κανά Μελίνα - Δε θέλω [Ν. Μαμαγκάκης-Μιχ. Γκανάς]
TTITLE13=Δάρρα Φωτεινή - Εκεί που πέρασ' η φωτιά [Δ. ΠαπαδημητρίουΝ. Γκάτσος]
TTITLE14=Σαλπέα Πετρή - Τώρα κείτεται Ν. Μαυρουδής-Οδ. Ελύτης]
TTITLE15=Τσάγκας Χρήστος - Αφήγηση [Οδ. Ελύτης]
TTITLE16=Βενετσάνου Νένα - Πού πέταξε τ' αγόρι μου [Μ. Θεοδωράκης-Γ. Ρίτσος]
TTITLE17=Μπακιρτζής Αργύρης - Μονομαχία [Θόδ. Θεοδωρίδης-Ανδρίκος Βρεττάς]
TTITLE18=Μούτσιος Γιώργος - Ο ποιητής [Δ. Μούτσης-Αν. Αγγελάκης]
EXTD=
EXTT0=
EXTT1=
EXTT2=
EXTT3=
EXTT4=
EXTT5=
EXTT6=
EXTT7=
EXTT8=
EXTT9=
EXTT10=
EXTT11=
EXTT12=
EXTT13=
EXTT14=
EXTT15=
EXTT16=
EXTT17=
EXTT18=
PLAYORDER=
